<svg width="30" height="30" viewBox="0 0 30 30" fill="none" xmlns="http://www.w3.org/2000/svg">
<g clip-path="url(#clip0_77_306)">
<path d="M14.4943 5.25776C17.8326 5.25776 18.2279 5.2724 19.5408 5.33097C20.761 5.38466 21.4199 5.58964 21.8591 5.76046C22.4399 5.98497 22.8596 6.25828 23.294 6.69265C23.7333 7.13191 24.0017 7.54676 24.2262 8.12755C24.397 8.5668 24.602 9.23056 24.6557 10.4458C24.7142 11.7636 24.7289 12.1589 24.7289 15.4924C24.7289 18.8307 24.7142 19.226 24.6557 20.5389C24.602 21.759 24.397 22.4179 24.2262 22.8572C24.0017 23.4379 23.7284 23.8577 23.294 24.292C22.8547 24.7313 22.4399 24.9997 21.8591 25.2242C21.4199 25.3951 20.7561 25.6 19.5408 25.6537C18.2231 25.7123 17.8277 25.7269 14.4943 25.7269C11.156 25.7269 10.7607 25.7123 9.44778 25.6537C8.22763 25.6 7.56875 25.3951 7.1295 25.2242C6.54871 24.9997 6.12898 24.7264 5.6946 24.292C5.25535 23.8528 4.98692 23.4379 4.76241 22.8572C4.59159 22.4179 4.38661 21.7541 4.33292 20.5389C4.27435 19.2211 4.25971 18.8258 4.25971 15.4924C4.25971 12.154 4.27435 11.7587 4.33292 10.4458C4.38661 9.22568 4.59159 8.5668 4.76241 8.12755C4.98692 7.54676 5.26023 7.12703 5.6946 6.69265C6.13386 6.2534 6.54871 5.98497 7.1295 5.76046C7.56875 5.58964 8.23251 5.38466 9.44778 5.33097C10.7607 5.2724 11.156 5.25776 14.4943 5.25776ZM14.4943 3.00781C11.1023 3.00781 10.6777 3.02245 9.34528 3.08102C8.01776 3.13959 7.10509 3.35433 6.31444 3.66181C5.48962 3.98393 4.7917 4.40854 4.09865 5.10646C3.40073 5.79951 2.97612 6.49743 2.654 7.31737C2.34652 8.11291 2.13178 9.02069 2.07321 10.3482C2.01464 11.6855 2 12.1101 2 15.5021C2 18.8941 2.01464 19.3187 2.07321 20.6511C2.13178 21.9787 2.34652 22.8913 2.654 23.682C2.97612 24.5068 3.40073 25.2047 4.09865 25.8978C4.7917 26.5908 5.48962 27.0203 6.30956 27.3375C7.10509 27.645 8.01288 27.8598 9.3404 27.9183C10.6728 27.9769 11.0974 27.9915 14.4894 27.9915C17.8814 27.9915 18.306 27.9769 19.6384 27.9183C20.966 27.8598 21.8786 27.645 22.6693 27.3375C23.4892 27.0203 24.1871 26.5908 24.8802 25.8978C25.5732 25.2047 26.0027 24.5068 26.32 23.6869C26.6274 22.8913 26.8422 21.9835 26.9008 20.656C26.9593 19.3236 26.974 18.899 26.974 15.507C26.974 12.115 26.9593 11.6904 26.9008 10.358C26.8422 9.03046 26.6274 8.11779 26.32 7.32713C26.0125 6.49743 25.5879 5.79951 24.89 5.10646C24.1969 4.41342 23.499 3.98393 22.679 3.66669C21.8835 3.35921 20.9757 3.14447 19.6482 3.0859C18.3109 3.02245 17.8863 3.00781 14.4943 3.00781Z" fill="#504538"/>
<path d="M14.4941 9.08398C10.9508 9.08398 8.07617 11.9587 8.07617 15.502C8.07617 19.0453 10.9508 21.9199 14.4941 21.9199C18.0374 21.9199 20.9121 19.0453 20.9121 15.502C20.9121 11.9587 18.0374 9.08398 14.4941 9.08398ZM14.4941 19.6651C12.1954 19.6651 10.331 17.8007 10.331 15.502C10.331 13.2032 12.1954 11.3388 14.4941 11.3388C16.7929 11.3388 18.6573 13.2032 18.6573 15.502C18.6573 17.8007 16.7929 19.6651 14.4941 19.6651Z" fill="#504538"/>
<path d="M22.6646 8.83037C22.6646 9.66007 21.9911 10.3287 21.1663 10.3287C20.3366 10.3287 19.668 9.65519 19.668 8.83037C19.668 8.00067 20.3415 7.33203 21.1663 7.33203C21.9911 7.33203 22.6646 8.00555 22.6646 8.83037Z" fill="#504538"/>
</g>
<defs>
<clipPath id="clip0_77_306">
<rect width="25" height="25" fill="white" transform="translate(2 3)"/>
</clipPath>
</defs>
</svg>
