<svg width="30" height="30" viewBox="0 0 30 30" fill="none" xmlns="http://www.w3.org/2000/svg">
<g clip-path="url(#clip0_74_271)">
<path d="M27.9996 7.38816C28.0073 6.80691 27.8978 6.23009 27.6777 5.69224C27.4575 5.15439 27.1312 4.66658 26.7184 4.25804C25.8777 3.45073 24.7581 3 23.5935 3C22.4289 3 21.3093 3.45073 20.4686 4.25804L10.1565 14.5874H9.81276C8.04322 14.635 6.35949 15.3615 5.10923 16.6167C3.85897 17.872 3.13767 19.5602 3.09425 21.3328L3.00051 26.4349C2.99513 26.6461 3.03251 26.8562 3.11038 27.0526C3.18826 27.2489 3.30501 27.4275 3.45362 27.5774C3.75779 27.852 4.15348 28.0027 4.56295 28L9.65652 27.9061C11.4262 27.8626 13.1116 27.1401 14.3648 25.8877C15.6179 24.6354 16.3431 22.9488 16.3907 21.1763V20.8163L26.7184 10.487C27.1289 10.0832 27.4539 9.60066 27.674 9.06824C27.8942 8.53581 28.0049 7.96441 27.9996 7.38816V7.38816ZM9.6409 24.7759L6.1254 24.8698V21.3798C6.14179 20.3945 6.54409 19.4551 7.24556 18.7642C7.94703 18.0732 8.89147 17.6861 9.87526 17.6862C10.3217 17.6862 10.7637 17.7752 11.1754 17.9482C11.5871 18.1212 11.9602 18.3747 12.273 18.6938C12.5858 19.0129 12.8319 19.3913 12.997 19.8068C13.1621 20.2223 13.2428 20.6666 13.2345 21.1137C13.2115 22.067 12.8274 22.9759 12.1601 23.656C11.4927 24.3361 10.5921 24.7365 9.6409 24.7759V24.7759ZM24.5154 8.26459L15.3438 17.4515C15.1038 17.0937 14.8319 16.7584 14.5313 16.4498C14.2274 16.1443 13.8922 15.8715 13.5314 15.636L22.7029 6.46477C22.9471 6.23133 23.2716 6.10108 23.6092 6.10108C23.9467 6.10108 24.2712 6.23133 24.5154 6.46477C24.6341 6.58662 24.7271 6.73118 24.7889 6.88983C24.8506 7.04848 24.8798 7.21796 24.8747 7.38816C24.8753 7.55074 24.8439 7.71183 24.7822 7.86222C24.7205 8.01261 24.6299 8.14934 24.5154 8.26459V8.26459Z" fill="#504538"/>
</g>
<defs>
<clipPath id="clip0_74_271">
<rect width="30" height="30" fill="white"/>
</clipPath>
</defs>
</svg>
