<svg width="30" height="30" viewBox="0 0 30 30" fill="none" xmlns="http://www.w3.org/2000/svg">
<path d="M10 25.502C9.72689 26.1496 9.15204 26.6419 8.43293 26.7558L7.04206 26.9755C5.9243 27.1527 4.87922 26.3498 4.70963 25.1811L2.0237 6.68155C1.853 5.51289 2.62277 4.42245 3.74164 4.24531L5.13251 4.02446C6.25027 3.84732 7.29425 4.65135 7.46384 5.81886L9.72909 21.4163C9.1135 21.8339 8.70494 22.5585 8.70494 23.381C8.70494 24.3184 9.23574 25.1294 10 25.502Z" fill="#504538"/>
<path d="M29 8.5287V9.76584C29 10.6108 28.3205 11.2957 27.4833 11.2957H26.5236C26.3296 11.2957 26.172 11.4535 26.172 11.649V19.8584C26.172 19.9202 26.1708 19.9819 26.1697 20.0425C26.0937 23.0919 24.121 25.6657 21.3962 26.6112C21.1069 26.713 20.8086 26.7942 20.5034 26.8571C20.0451 26.9508 19.5721 27 19.0865 27C18.601 27 18.128 26.9508 17.6708 26.8571C17.3657 26.7953 17.0662 26.713 16.7769 26.6112C15.4486 26.1505 14.2983 25.3032 13.4588 24.201C13.5496 23.9506 13.5995 23.6819 13.5995 23.4018C13.5995 22.4173 12.9903 21.5747 12.1316 21.2362C12.059 20.8578 12.0147 20.4702 12.0034 20.0734C12.0011 20.0025 12 19.9305 12 19.8584V13.4292C12 12.2504 12.9484 11.2957 14.1168 11.2957H15.5529C16.7225 11.2957 17.6697 12.2504 17.6697 13.4292V19.8928C17.689 20.6657 18.3163 21.2865 19.0877 21.2865C19.8591 21.2865 20.466 20.6851 20.5034 19.9293V9.12669C20.5034 7.95244 21.4472 7 22.6134 7H27.4833C28.3205 7 29 7.68374 29 8.5287Z" fill="#504538"/>
<path d="M13 23.5C13 23.6931 12.9827 23.8818 12.9481 24.0634C12.744 25.1715 11.9484 26 10.9994 26C10.6858 26 10.3883 25.9092 10.1242 25.7478C9.45892 25.3415 9 24.487 9 23.5C9 22.6945 9.30672 21.9755 9.78409 21.5173C10.1208 21.1931 10.5417 21 10.9994 21C11.3442 21 11.6682 21.1095 11.9507 21.3012C12.5757 21.7248 13 22.5519 13 23.5Z" fill="#504538"/>
</svg>
